<svg width="512" height="512" viewBox="0 0 512 512" fill="none" xmlns="http://www.w3.org/2000/svg">
<rect width="512" height="512" rx="90" fill="#121212"/>
<path d="M393.568 152.001C393.568 144.241 387.6 138.272 379.848 138.272H199.328C183.048 138.272 170.928 150.392 170.928 166.672V337.951C170.928 359.831 152.968 377.791 131.088 377.791C109.208 377.791 91.2483 359.831 91.2483 337.951C91.2483 316.071 109.208 298.111 131.088 298.111H133.488" stroke="#D4AF37" stroke-width="38" stroke-linecap="round" stroke-linejoin="round"/>
<path d="M293.308 214.372C293.308 209.682 289.628 205.992 284.938 205.992H251.498C244.418 205.992 238.858 211.552 238.858 218.632V242.942C238.858 252.802 230.938 260.722 221.078 260.722C211.218 260.722 203.298 252.802 203.298 242.942C203.298 233.082 211.218 225.162 221.078 225.162H222.278" stroke="#D4AF37" stroke-width="26" stroke-linecap="round" stroke-linejoin="round"/>
</svg>
